<?xml version="1.0" encoding="utf-8"?>
<!-- Generator: Adobe Illustrator 21.0.2, SVG Export Plug-In . SVG Version: 6.00 Build 0)  -->
<svg version="1.1"
	 id="svg8" inkscape:version="0.92.0 r15299" sodipodi:docname="Background2racetrack.svg" xmlns:cc="http://creativecommons.org/ns#" xmlns:dc="http://purl.org/dc/elements/1.1/" xmlns:inkscape="http://www.inkscape.org/namespaces/inkscape" xmlns:osb="http://www.openswatchbook.org/uri/2009/osb" xmlns:rdf="http://www.w3.org/1999/02/22-rdf-syntax-ns#" xmlns:sodipodi="http://sodipodi.sourceforge.net/DTD/sodipodi-0.dtd" xmlns:svg="http://www.w3.org/2000/svg"
	 xmlns="http://www.w3.org/2000/svg" xmlns:xlink="http://www.w3.org/1999/xlink" x="0px" y="0px" viewBox="0 0 1119 595.3"
	 style="enable-background:new 0 0 1119 595.3;" xml:space="preserve">
<style type="text/css">
	.st0{fill:#CCF0FC;}
	.st1{fill:#A02C2C;}
	.st2{fill:#DEDEDE;}
	.st3{fill:#E3DEDB;}
	.st4{fill:#CCF0FC;stroke:#CCF0FC;stroke-width:0.2646;}
	.st5{fill:#48D1CC;stroke:#48D1CC;stroke-width:0.2621;stroke-linecap:round;}
	.st6{fill:#008080;stroke:#008080;stroke-width:0.2784;stroke-linecap:round;}
	.st7{fill:#99CCFF;}
	.st8{fill:none;stroke:#99CCFF;stroke-width:0.726;}
	.st9{fill:#99CCFF;stroke:#99CCFF;stroke-width:0.765;}
	.st10{fill:none;stroke:#99CCFF;stroke-width:0.565;}
	.st11{fill:#99CCFF;stroke:#99CCFF;stroke-width:0.465;}
	.st12{fill:#99CCFF;stroke:#006699;stroke-width:0.3827;}
	.st13{fill:none;stroke:#99CCFF;stroke-width:1.1307;}
	.st14{fill:#99CCFF;stroke:#006699;stroke-width:1.1705;}
	.st15{fill:#006699;}
	.st16{fill:none;stroke:#99CCFF;stroke-width:0.2646;}
	.st17{fill:#99CCFF;stroke:#99CCFF;stroke-width:0.2646;}
	.st18{fill:none;stroke:#006699;stroke-width:0.2991;}
</style>
<inkscape:perspective  id="perspective4653" inkscape:persp3d-origin="-179.5887 : 289.35001 : 1" inkscape:vp_x="593.86601 : 216.45561 : 1" inkscape:vp_y="0 : -2082.698 : 0" inkscape:vp_z="-953.04348 : 216.45561 : 1" sodipodi:type="inkscape:persp3d">
	</inkscape:perspective>
<inkscape:path-effect  effect="simplify" helper_size="0" id="path-effect3735" is_visible="true" simplifyJustCoalesce="false" simplify_individual_paths="false" simplify_just_coalesce="false" simplifyindividualpaths="false" smooth_angles="360" steps="1" threshold="0.0234426">
	</inkscape:path-effect>
<inkscape:path-effect  effect="simplify" helper_size="0" id="path-effect3729" is_visible="true" simplifyJustCoalesce="false" simplify_individual_paths="false" simplify_just_coalesce="false" simplifyindividualpaths="false" smooth_angles="360" steps="1" threshold="0.0234426">
	</inkscape:path-effect>
<inkscape:path-effect  effect="simplify" helper_size="0" id="path-effect3723" is_visible="true" simplifyJustCoalesce="false" simplify_individual_paths="false" simplify_just_coalesce="false" simplifyindividualpaths="false" smooth_angles="360" steps="1" threshold="0.0234426">
	</inkscape:path-effect>
<path id="rect12" inkscape:connector-curvature="0" inkscape:export-xdpi="96" inkscape:export-ydpi="96" class="st0" d="M-4-0.2
	v595.7h1128V-0.2H-4z M365.6,197.8c0.8,0.2,1.7,0.5,2.5,0.7c0.1,0,0.2,0.1,0.2,0.2c0.4,0.4,1,0.8,1.3,1.2c1.5,1.8,1.4,4.4,2.9,6.2
	c2.2,5,2.4,5.8,5.1,10.9c1.7,3.3,4.1,6.2,6,9.4c0.5,0.9,0.9,1.9,1.4,2.8c2.4,4.9-3.8,6.6-6.2,1.7c-0.4-0.8-0.8-1.7-1.2-2.5
	c-0.5-0.9-1.2-1.8-1.8-2.7c-1.6-2.4-2.7-3.9-4-6.4c-2.8-5.3-3.1-6.2-5.4-11.4c-1.7-1.2-1.1-3.8-2.3-5.3c0,0,0,0-0.1,0
	c0,0.1,0,0.1,0,0.1c-0.1,0.1-0.5-0.3-0.3-0.3c0.1,0,0.2,0.1,0.3,0.1c-0.1-0.1-0.3-0.3-0.2-0.3c0.1,0.1,0.2,0.2,0.2,0.3
	c0.5,0.2,0.9,0.4,1.4,0.6c0.6-0.1,1.2-0.2,1.7-0.3c6.3-1.3-9.8-2.8-3.6-4.5C364.2,198.2,364.9,198,365.6,197.8L365.6,197.8z
	 M336.8,200.5c0.2,0,0.3,0,0.5,0c0.5,0,1.1,0.1,1.8,0.3c0.5,0.1,0.9,0.4,1.3,0.6c0,0,0,0,0-0.1c0.3,0,0.6-0.1,0.9-0.1
	c2.4,0.1,2.6,0.2,4.9,0.8c0.5,0.1,1.1,0.3,1.6,0.4c0.2,0,0.8,0.1,0.6,0.1c-0.2,0-0.5-0.1-0.7-0.1c1.2,1,2.2,2.3,3.7,3
	c0.5,0.2-0.7-1.1-0.3-1.4c0.3-0.3,0.5,0.7,0.7,1c0.1,0.1-0.1-0.3-0.1-0.2c1.4,1.8,1,1.2,1.4,3.1c-0.1,1.6-0.4,3.1-0.8,4.6
	c-0.1,0.3-0.1,0.7-0.3,1c-0.2,0.5-0.4,0.9-0.7,1.3c-1.1,1.4-2.6,2.6-4.1,3.8c0.1,0,0.2-0.1,0.2-0.1c-0.2,0.9-2.5,1.9-2.8,2
	c0,0-0.1,0-0.1,0.1c0,0.1-0.4,0.5-0.5,0.7c-0.1,0.3,0,0.4,0,0.6c0.3,1.6-0.8,2.7-1.7,3.9c-0.1,0.2-0.3,0.4-0.4,0.5
	c0,0.2-0.1,0.3-0.2,0.3c0.1-0.1,0.2-0.2,0.2-0.3c0-0.2,0-0.3,0-0.4c-0.1-5.2-5.2,6-6.3,1.7c-1.9,1.7-5.3,0.6-5.3-3.2v-12.2
	c0-2.4-0.3-5.4,0.7-7.8c0.4-1,1.2-1.8,1.8-2.6C335.1,201.1,335.7,200.5,336.8,200.5L336.8,200.5z M338.6,204.9
	c-0.3,0.2-0.7,0.3-0.8,0.5c-0.1,0.1-0.1,0.3-0.2,0.4c0.1,0,0.2-0.1,0.3-0.1C338.2,205.5,338.4,205.2,338.6,204.9L338.6,204.9z
	 M337.5,206.2c-0.6,2-0.3,4.2-0.3,6.1v10.6c0.1-0.1,0.1-0.1,0.2-0.3c0,0,0.1,0,0.2-0.1c0,0,0.1-0.2,0.2-0.3
	c-0.1-1.8,0.4-3.4,1.7-4.8c0.3-0.3,0.7-0.5,1-0.7c-0.3,0.3-1.1,1.2-0.8,0.9c0.6-0.5,1.1-1.1,1.7-1.6c0.2-0.1,0.6-0.4,0.8-0.4
	c0.3-0.3,0.5-0.6,0.7-0.8c0,0,0,0-0.1,0c0.6-0.6,0.4-0.4,0.1,0c0.6-0.4,1.1-0.9,1.7-1.3c0.3-0.3,0.5-0.6,0.9-0.8
	c0.1,0,0,0.1,0.1,0.2c0.6-0.8,0.1,0,0.6-1.6c0.1-0.2,0.2-0.3,0.2-0.5c0.2-0.7,0.1-1.5,0.3-2.3c0.2,0.2,0.8,0.6,0.7,0.5
	c-0.4-0.4-0.8-0.7-1.2-1.1c0,0,0,0,0,0c-0.5-0.1-1.1-0.2-1.9-0.5c-0.5-0.1-1-0.3-1.6-0.4c-0.2-0.1-0.4-0.2-0.6-0.2
	c-0.4,0-0.7,0.1-1.1,0.1C339.1,206.7,339.3,206.9,337.5,206.2C337.5,206.3,337.5,206.3,337.5,206.2L337.5,206.2z M344.1,221
	c-0.1,0.1-0.3,0.2-0.4,0.3C343.9,221.4,344,221.2,344.1,221z"/>
<rect id="rect10" x="-4" y="280.8" class="st1" width="1128" height="314.7"/>
<rect id="rect3690" x="-4" y="261.8" class="st2" width="1128" height="23.6"/>
<rect id="rect122" x="-4" y="378.8" class="st3" width="1128" height="6.1"/>
<rect id="rect124" x="-4" y="495.5" class="st3" width="1130" height="6.1"/>
<path id="path1332" inkscape:connector-curvature="0" class="st4" d="M248.4,160.5l278.6,6.4l-146.8,86.8l-75-15L248.4,160.5z"/>
<path id="rect1334" class="st5" d="M226,75.3h107.8c7.7,0,13.9,6.2,13.9,13.9v99.4c0,7.7-6.2,13.9-13.9,13.9H226
	c-7.7,0-13.9-6.2-13.9-13.9V89.2C212.1,81.5,218.3,75.3,226,75.3z"/>
<path id="rect1357" class="st6" d="M236.8,87.1h86.4c6,0,10.9,4.9,10.9,10.9v80.9c0,6-4.9,10.9-10.9,10.9h-86.4
	c-6,0-10.9-4.9-10.9-10.9V98C225.9,91.9,230.8,87.1,236.8,87.1z"/>
<g id="g37" transform="matrix(1.0487919,0,0,0.96473236,-139.98718,55.986137)">
	<ellipse id="path5162" class="st7" cx="375.4" cy="44.7" rx="5.9" ry="4.8"/>
	<ellipse id="path5162-4" class="st7" cx="422.1" cy="44.5" rx="5.9" ry="4.8"/>
	<path id="path5179" inkscape:connector-curvature="0" sodipodi:nodetypes="cccscc" class="st8" d="M374.4,46.6c0,0,0,21.4,3.4,24.6
		c3.4,3.2,20.2,13,23.1,11.9c2.9-1.1,20.4-7.6,21.8-10.8s0.5-26.8,0.5-26.8l0,0"/>
	<ellipse id="path5181" class="st9" cx="400.2" cy="82.6" rx="4.8" ry="3.3"/>
	<path id="path5183" inkscape:connector-curvature="0" class="st10" d="M400.2,85.7l-0.3,35.1"/>
	<ellipse id="path5185" class="st11" cx="400.2" cy="122.5" rx="6.8" ry="6.3"/>
	<ellipse id="path5185-2" class="st12" cx="400.2" cy="122.4" rx="5.6" ry="5.2"/>
</g>
<path id="rect1334-9" class="st5" d="M467.8,75.7h107.8c7.7,0,13.9,6.2,13.9,13.9V189c0,7.7-6.2,13.9-13.9,13.9H467.8
	c-7.7,0-13.9-6.2-13.9-13.9V89.6C453.8,81.9,460.1,75.7,467.8,75.7z"/>
<path id="rect1357-4" class="st6" d="M479.1,87.8h86.4c6,0,10.9,4.9,10.9,10.9v80.9c0,6-4.9,10.9-10.9,10.9h-86.4
	c-6,0-10.9-4.9-10.9-10.9V98.7C468.2,92.7,473.1,87.8,479.1,87.8z"/>
<g id="g61" transform="matrix(0.93198689,0,0,0.82062771,-88.254164,72.421702)">
	<path id="rect5097" class="st7" d="M623.1,66.8h64.4c9.6,0,17.4,7.8,17.4,17.4v17.4c0,9.6-7.8,17.4-17.4,17.4h-64.4
		c-9.6,0-17.4-7.8-17.4-17.4V84.2C605.7,74.6,613.5,66.8,623.1,66.8z"/>
	<path id="path5101" inkscape:connector-curvature="0" class="st13" d="M620.7,70c0,0,6.4-13.3,12.3-15.7c5.9-2.4,38.5-1.8,38.5-1.8
		s9.6-0.6,13.9,7.9c4.3,8.5,4.3,9.7,4.3,9.7"/>
	<path id="rect5103" class="st7" d="M648.3,49.7l14.4-0.2c1.9,0,3.7,1.5,3.9,3.4v0c0.2,1.9-1.2,3.5-3.1,3.5l-14.4,0.2
		c-1.9,0-3.7-1.5-3.9-3.4v0C645,51.3,646.4,49.7,648.3,49.7z"/>
	<ellipse id="path5107" class="st14" cx="655.7" cy="93.8" rx="23.7" ry="18.8"/>
	<path id="rect5109" class="st15" d="M655.4,80.2L655.4,80.2c1,0,1.9,1.6,1.9,3.5v19.6c0,1.9-0.8,3.5-1.9,3.5h0
		c-1,0-1.9-1.6-1.9-3.5V83.6C653.5,81.7,654.3,80.2,655.4,80.2z"/>
	<path id="rect5109-7" class="st15" d="M642.9,93L642.9,93c0,1,1.6,1.9,3.5,1.9h19.6c1.9,0,3.5-0.8,3.5-1.9l0,0c0-1-1.6-1.9-3.5-1.9
		h-19.6C644.4,91.1,642.9,92,642.9,93z"/>
</g>
<path id="rect1334-5" class="st5" d="M718.5,78.8h107.8c7.7,0,13.9,6.2,13.9,13.9v99.4c0,7.7-6.2,13.9-13.9,13.9H718.5
	c-7.7,0-13.9-6.2-13.9-13.9V92.8C704.5,85.1,710.8,78.8,718.5,78.8z"/>
<path id="rect1357-4-4" class="st6" d="M729.8,89.7h86.4c6,0,10.9,4.9,10.9,10.9v80.9c0,6-4.9,10.9-10.9,10.9h-86.4
	c-6,0-10.9-4.9-10.9-10.9v-80.9C718.9,94.6,723.8,89.7,729.8,89.7z"/>
<g id="g82" transform="matrix(1.0671405,0,0,1.0780095,-102.3948,52.915958)">
	<path id="path5126" inkscape:connector-curvature="0" sodipodi:nodetypes="cccccc" class="st16" d="M831.1,68.9l-21.2,24.2
		l-27.3-21.2c0,0-5.6-19.8,5.7-23.6c11.4-3.8,15.5-0.6,15.5-0.6L831.1,68.9z"/>
	<path id="path5130" inkscape:connector-curvature="0" class="st16" d="M796.2,50.1l4,0.3l18.2,13.4"/>
	<path id="path5126-4" inkscape:connector-curvature="0" sodipodi:nodetypes="cccccc" class="st17" d="M811.9,95.1l21.2-24.2
		l27.3,21.2c0,0,5.6,19.8-5.7,23.6c-11.4,3.8-15.5,0.6-15.5,0.6L811.9,95.1z"/>
	<path id="path5130-5" inkscape:connector-curvature="0" class="st18" d="M855.9,98.1l-0.4-3.6l-19-16.4"/>
</g>
</svg>
